PathFileType	4	(X/Y/Z)	G:\GRF\jawan data\CompiledGRF\03. Mohit Kumar\0231~ac~Walking 05_markers.trc
DataRate	CameraRate	NumFrames	NumMarkers	Units	OrigDataRate	OrigDataStartFrame	OrigNumFrames
100.000000	100.000000	9	18	mm	100.000000	347	926
Frame#	Time	c7			r should			l should			sacrum			r asis			r bar 1			r knee 1			r bar 2			r mall			r heel			r met			l asis			l bar 1			l knee 1			l bar 2			l mall			l heel			l met			
		X1	Y1	Z1	X2	Y2	Z2	X3	Y3	Z3	X4	Y4	Z4	X5	Y5	Z5	X6	Y6	Z6	X7	Y7	Z7	X8	Y8	Z8	X9	Y9	Z9	X10	Y10	Z10	X11	Y11	Z11	X12	Y12	Z12	X13	Y13	Z13	X14	Y14	Z14	X15	Y15	Z15	X16	Y16	Z16	X17	Y17	Z17	X18	Y18	Z18	

348	3.47	2356.438720703125	1494.98583984375	259.9978637695313	2278.188232421875	1430.41796875	84.6983642578125	2277.527587890625	1440.798095703125	429.0361022949219	2433.876953125	1027.8115234375	258.9916076660156	2241.9677734375	1000.266418457031	144.8859252929688	2213.771484375	591.9418334960938	66.02281951904297	2168.7255859375	518.010009765625	115.1356582641602	2153.283935546875	192.4597015380859	86.93055725097656	2104.783447265625	67.53009796142578	141.5438385009766	2149.5947265625	20.54171180725098	193.5246124267578	1955.40234375	64.8736572265625	142.4111175537109	2257.50537109375	999.8331298828125	394.8081665039063	2380.283203125	585.1071166992188	455.6744689941406	2384.465576171875	493.734375	397.3603820800781	2521.7978515625	248.9725646972656	449.814453125	2593.83203125	91.89260864257813	381.3266296386719	2672.001953125	72.17918395996094	336.3850708007813	nan	nan	nan	
349	3.48	2347.912353515625	1495.12548828125	258.0043640136719	2269.854736328125	1430.834106445313	82.70552825927734	2269.14404296875	1441.130249023438	427.0586242675781	2424.061279296875	1027.805786132813	257.2691040039063	2230.335693359375	1000.693298339844	143.5345306396484	2204.46533203125	592.2306518554688	65.31784057617188	2160.2900390625	517.8059692382813	114.6197814941406	2148.442626953125	192.2017822265625	86.96034240722656	2101.50390625	67.43769073486328	141.8875732421875	2148.16552734375	22.5797004699707	193.2981567382813	1951.940551757813	60.40833282470703	143.9247131347656	2247.873291015625	999.7433471679688	393.5707397460938	2370.654052734375	584.9859619140625	454.7882995605469	2375.242919921875	493.3670959472656	396.9658203125	2516.2529296875	251.56884765625	449.7217102050781	2591.716796875	95.15540313720703	381.9845886230469	2670.244873046875	77.28065490722656	337.2108459472656	nan	nan	nan	
350	3.49	2339.339599609375	1495.448364257813	255.9699096679688	2261.238525390625	1431.255859375	80.68478393554688	2260.5302734375	1441.608764648438	425.0316772460938	2414.173583984375	1027.854736328125	255.6233673095703	2222.4091796875	1000.655029296875	142.3693695068359	2195.455810546875	592.8567504882813	64.27519226074219	2152.4951171875	518.0567626953125	113.7681274414063	2142.116943359375	192.314453125	86.10736083984375	2097.203857421875	67.67826080322266	141.4681549072266	2145.72021484375	25.21700096130371	192.4530792236328	1948.374755859375	56.70022964477539	144.9427642822266	2237.87841796875	999.7149047851563	392.2005920410156	2360.5703125	585.05810546875	453.5738830566406	2365.169189453125	492.9593200683594	396.5481567382813	2510.30859375	253.5177459716797	449.6021728515625	2588.91064453125	98.60327911376953	382.7711486816406	2667.925537109375	82.80524444580078	338.0997924804688	nan	nan	nan	
351	3.5	2330.614501953125	1495.850830078125	253.9332580566406	2252.5205078125	1431.705444335938	78.60446929931641	2251.7900390625	1442.283447265625	423.087890625	2404.22314453125	1028.060668945313	254.1705932617188	2213.982666015625	1001.111755371094	141.0096282958984	2186.71142578125	593.5423583984375	62.98405075073242	2144.9306640625	518.6668701171875	112.5936965942383	2134.898681640625	192.4736633300781	84.51039886474609	2092.8818359375	67.39370727539063	140.8793640136719	2143.276123046875	27.45589828491211	191.2553405761719	1945.455810546875	52.87680053710938	145.8051300048828	2227.49609375	999.8289184570313	390.7010192871094	2350.008544921875	585.42236328125	452.4415893554688	2354.18505859375	492.7174987792969	396.048095703125	2503.396484375	254.7838134765625	449.7420654296875	2585.85986328125	102.1769027709961	383.4228515625	2665.18798828125	88.8704833984375	338.6589965820313	nan	nan	nan	
352	3.51	2322.080078125	1496.357055664063	251.8400573730469	2243.772705078125	1432.3056640625	76.46820068359375	2242.867431640625	1443.096069335938	421.0789794921875	2394.09130859375	1028.449829101563	252.8387298583984	2201.9619140625	1002.588623046875	139.3353881835938	2177.8984375	594.1573486328125	61.45209884643555	2136.995361328125	519.2695922851563	111.4900131225586	2127.772216796875	192.5983581542969	82.84712219238281	2089.44677734375	66.88559722900391	140.3491058349609	2141.682861328125	28.84535980224609	190.1811676025391	1942.322509765625	49.32292556762695	146.7423400878906	2217.28857421875	1000.027526855469	389.1312255859375	2338.2109375	585.4569702148438	451.3988647460938	2342.126708984375	492.3229064941406	395.4618530273438	2495.346435546875	256.482421875	449.8770141601563	2582.435302734375	105.9013290405273	383.8995666503906	2661.92333984375	95.58609771728516	338.9634399414063	nan	nan	nan	
353	3.52	2313.484130859375	1496.909912109375	249.7093963623047	2235.048583984375	1433.04833984375	74.37042999267578	2233.9111328125	1444.083251953125	418.9980773925781	2383.89892578125	1028.962158203125	251.52734375	2190.94775390625	1003.880493164063	137.4978942871094	2168.45556640625	594.654052734375	59.83559036254883	2128.13525390625	519.4055786132813	110.4926834106445	2121.634765625	192.3923797607422	81.51164245605469	2087.534423828125	66.35243225097656	140.0462188720703	2141.03466796875	29.55302810668945	189.4602813720703	1940.381958007813	46.41654968261719	147.2758941650391	2207.35205078125	1000.468505859375	387.6641845703125	2325.986083984375	585.7025756835938	450.4923400878906	2329.0400390625	491.8707885742188	395.2376708984375	2487.560791015625	259.1600036621094	449.9983215332031	2578.292236328125	110.7076568603516	384.0910339355469	2658.059814453125	103.014404296875	339.0576782226563	nan	nan	nan	
354	3.53	2304.81982421875	1497.572387695313	247.5797271728516	2226.261962890625	1433.914794921875	72.19854736328125	2225.011962890625	1445.236206054688	417.0115661621094	2373.863525390625	1029.675415039063	250.1152191162109	2181.355712890625	1004.72998046875	135.4017639160156	2158.4365234375	595.319580078125	58.24726486206055	2119.0263671875	519.4274291992188	109.6735992431641	2116.68994140625	192.0374298095703	80.71482086181641	2086.680908203125	66.0589599609375	140.0514373779297	2140.712646484375	30.06637001037598	189.1562194824219	1938.33154296875	44.8602294921875	146.9573211669922	2197.050537109375	1000.967041015625	385.7334899902344	2312.702392578125	585.5382690429688	449.7057189941406	2314.960205078125	491.2348022460938	395.5037231445313	2479.224853515625	261.9780883789063	449.912841796875	2573.627685546875	114.7650375366211	384.2592163085938	2653.31787109375	111.1847457885742	338.8879089355469	nan	nan	nan	
355	3.54	2296.079345703125	1498.374877929688	245.44189453125	2217.427490234375	1434.847412109375	70.16423034667969	2216.196533203125	1446.472534179688	414.8934631347656	2363.951904296875	1030.567138671875	248.5660247802734	2172.94091796875	1005.364440917969	133.3158111572266	2148.3427734375	596.2714233398438	56.86429214477539	2110.16845703125	519.5567626953125	109.1601715087891	2112.5322265625	191.7812805175781	80.2047119140625	2085.904052734375	66.17056274414063	140.0803680419922	2140.16845703125	30.54224395751953	188.9628753662109	1936.653930664063	43.37544631958008	146.4694366455078	2186.585693359375	1001.366394042969	383.4968872070313	2299.09326171875	585.6112670898438	449.1492309570313	2299.86376953125	490.3628540039063	395.96044921875	2470.104736328125	264.9481506347656	449.70947265625	2568.293212890625	119.9030685424805	384.3388061523438	2647.412841796875	120.0561828613281	338.4243774414063	nan	nan	nan	
356	3.55	2287.263427734375	1499.233276367188	243.3125457763672	2208.71435546875	1435.77490234375	68.1678466796875	2207.407470703125	1447.826049804688	412.8228454589844	2354.1005859375	1031.468139648438	246.8621673583984	2163.79638671875	1006.415466308594	131.2226104736328	2138.79833984375	597.2647094726563	55.75485229492188	2101.9658203125	519.8902587890625	108.6377487182617	2108.483154296875	191.8921508789063	79.65763854980469	2084.677978515625	66.29952239990234	140.1574859619141	2139.625	30.90454483032227	188.6745910644531	1935.1728515625	42.26122665405273	146.6686706542969	2176.2685546875	1001.897094726563	381.1076354980469	2284.56591796875	585.4479370117188	448.6698913574219	2283.683837890625	489.4473571777344	396.9345703125	2460.168212890625	268.2745971679688	449.9033508300781	2562.0205078125	125.5028076171875	384.1520690917969	2640.21533203125	129.6475524902344	337.4670104980469	nan	nan	nan	
